<?xml version="1.0" encoding="UTF-8"?>
<svg id="Livello_2" data-name="Livello 2" xmlns="http://www.w3.org/2000/svg" viewBox="0 0 338.21 178.52">
  <defs>
    <style>
      .cls-1 {
        fill: #ece9e1;
      }
    </style>
  </defs>
  <g id="tavola_1" data-name="tavola 1">
    <g id="logo">
      <g>
        <path class="cls-1" d="M88.83,104.15h-34.85v-2.24c2.43,0,4.24-.5,5.42-1.49,1.19-.99,1.78-2.81,1.78-5.46v-41.73H27.65v40.81c0,2.93.44,4.97,1.32,6.13.88,1.16,2.84,1.74,5.88,1.74v2.24H0v-2.24c2.48,0,4.32-.5,5.51-1.49,1.19-.99,1.78-2.81,1.78-5.46V9.27c0-2.65-.59-4.47-1.78-5.46-1.19-.99-3.02-1.49-5.51-1.49V.08h34.85v2.24c-3.04,0-5,.58-5.88,1.74-.88,1.16-1.32,3.2-1.32,6.13v40.81h33.53V9.27c0-2.65-.59-4.47-1.78-5.46-1.19-.99-2.99-1.49-5.42-1.49V.08h34.85v2.24c-3.04,0-5.01.58-5.92,1.74-.91,1.16-1.37,3.2-1.37,6.13v83.86c0,2.93.46,4.97,1.37,6.13.91,1.16,2.88,1.74,5.92,1.74v2.24Z"/>
        <path class="cls-1" d="M135.94,105.39c-8.39,0-15.56-1.48-21.52-4.43-5.96-2.95-10.74-6.86-14.32-11.71-5.8-7.73-8.69-16.5-8.69-26.33,0-2.32.3-5.49.91-9.52.61-4.03,2.44-8.47,5.51-13.33,3.06-4.86,7.2-8.76,12.42-11.71,5.22-2.95,11.47-4.43,18.75-4.43s13.63,1.19,18.71,3.56c5.08,2.37,8.91,5.45,11.51,9.23,2.59,3.78,3.89,7.74,3.89,11.88,0,4.42-1.1,8.31-3.31,11.67-2.21,3.37-5.05,6.13-8.53,8.28-6.13,3.75-12.94,5.63-20.45,5.63-1.16,0-3.08-.12-5.75-.37-2.68-.25-5.7-1.23-9.07-2.94-1.1-.61-2.13-1.3-3.06-2.07.94,5.52,2.65,10.63,5.13,15.32,2.48,4.69,5.8,8.5,9.93,11.42,4.14,2.93,9.16,4.39,15.07,4.39,5.08,0,9.85-1.82,14.32-5.46s8.08-9.3,10.85-16.97h1.74c-2.7,9.44-7.16,16.45-13.37,21.03-6.21,4.58-13.09,6.87-20.66,6.87ZM127.66,72.11c3.26,0,6.02-1.08,8.28-3.23,4.36-4.14,6.54-10.73,6.54-19.79,0-3.97-.47-7.64-1.41-11.01-2.21-7.56-6.02-11.34-11.42-11.34-4.3,0-7.86,1.89-10.68,5.67-2.81,3.78-4.77,8.57-5.88,14.36-.72,3.59-1.08,7.29-1.08,11.09,0,2.37.14,4.77.41,7.2,1.05,1.66,2.57,3.01,4.55,4.06,4.03,1.99,7.59,2.98,10.68,2.98Z"/>
        <path class="cls-1" d="M311.2,104.15h-16.97c-4.3,0-7.16-.8-8.57-2.4-1.41-1.6-2.11-4.83-2.11-9.69v-7.37c-2.37,6.13-6,10.9-10.89,14.32-4.88,3.42-10.5,5.13-16.85,5.13-4.8,0-8.85-1.17-12.13-3.52-3.28-2.35-5.62-5.34-7-8.98-.88-2.32-1.32-4.72-1.32-7.2,0-1.38.25-3.41.75-6.08.5-2.68,2.33-5.7,5.51-9.06,3.17-3.37,7.66-5.96,13.45-7.78,1.93-.55,3.92-1.08,5.96-1.57,4.97-1.16,9.56-2.68,13.78-4.55,4.22-1.88,7.19-4.88,8.9-9.02-.22-12.58-3.67-18.88-10.35-18.88-1.99,0-3.92.8-5.8,2.4-1.88,1.6-3.12,4.08-3.73,7.45-.22,2.26-.33,4.58-.33,6.95,0,3.04-1.09,5.66-3.27,7.86-2.18,2.21-4.82,3.31-7.91,3.31s-5.73-1.1-7.91-3.31c-2.18-2.21-3.27-4.83-3.27-7.86,0-7.51,3.89-12.83,11.67-15.98,5.8-2.37,12.86-3.56,21.19-3.56,4.3,0,8.25.58,11.84,1.74,12.03,3.86,18.05,13.94,18.05,30.22v38.25c0,2.65.59,4.47,1.78,5.46,1.19.99,3.02,1.49,5.51,1.49v2.24ZM266.25,96.94c2.54,0,5.16-.85,7.86-2.57,6.29-3.97,9.44-11.95,9.44-23.93,0-9.99.03-15.55.08-16.68.05-1.13.08-2.39.08-3.77-1.77,2.87-3.88,5.09-6.33,6.66-2.46,1.57-5.01,2.91-7.66,4.02-3.37,1.32-6.37,3.01-9.02,5.05-2.7,2.37-4.69,5.3-5.96,8.78-1.05,2.81-1.57,5.63-1.57,8.44,0,.61.1,1.92.29,3.93.19,2.02,1.34,4.19,3.44,6.54,2.1,2.35,5.22,3.52,9.36,3.52Z"/>
        <path class="cls-1" d="M328.92,76.5h-2.24l-9.02-66.4c0-2.15.66-4.17,1.99-6.04,1.93-2.7,4.64-4.06,8.11-4.06s6.04,1.15,7.7,3.44c1.66,2.29,2.48,4.54,2.48,6.75,0,.22-3.01,22.33-9.02,66.31Z"/>
        <path class="cls-1" d="M224.46,55.53c-.06.17-.12.34-.19.51l-13,26.99v-.02s13.19-27.48,13.19-27.48Z"/>
        <path class="cls-1" d="M324.34,115.31c.36-.98.6-1.89.77-2.74-.13.85-.35,1.73-.64,2.62l-.13.12Z"/>
        <path class="cls-1" d="M188.15,130.79c.1.02.15.03.15.03-.05-.02-.1-.03-.15-.03Z"/>
        <path class="cls-1" d="M325.16,112.24c.4-3-.21-5.78-1.91-8.1,1.35,1.77,2.55,4.28,1.91,8.1Z"/>
        <path class="cls-1" d="M337.83,92.64c-.35-1.54-.96-2.93-1.84-4.12,0,0,0,0,0,0-1.91-2.24-5.4-4.77-9.91-3.93-2.88.53-4.88,2.16-6.21,3.83-2.13,2.63-2.92,6.2-1.65,9.34.73,1.77,1.9,2.9,3.13,4.24.54.58,1.24,1.27,1.91,2.15,1.35,1.77,2.55,4.28,1.91,8.1,0,.11-.03.22-.05.33-.13.85-.35,1.73-.64,2.62-4.1,12.28-23.47,26.67-52.43,27.95-33.2,1.46-59.62-7.39-81.69-11.92l.34-.71,14.4-29.99s21.61-44.78,23.98-49.53c4.97-9.16,7.45-15.97,7.45-20.44,0-2.93-.88-5.8-2.65-8.61-2.64-3.7-5.71-5.55-9.19-5.55-3.75,0-6.33,1.08-7.74,3.23-1.4,2.15-2.11,3.97-2.11,5.46,0,1.93.69,4.09,2.07,6.46l2.16,3.15c4.41,5.57,6.62,10.46,6.62,14.65,0,1.95-.4,4.01-1.22,6.19-.06.17-.12.34-.19.51l-13,26.99v-.02s-23.34-48.57-23.34-48.57c-.5-1.16-.75-2.21-.75-3.15s.28-1.74.83-2.4c1.16-1.27,2.79-1.9,4.88-1.9v-2.24h-35.1v2.24c4.2,0,7.54,2.65,10.02,7.94l33.25,69.32-12.76,26.57s-.05-.01-.15-.03c-2.84-.56-5.6-1.02-8.3-1.38-2.48-.33-23.44-3.25-31.68-2.42-16.32,1.15-29.84,11.24-29.84,25.57s13.27,25.96,29.63,25.96c6.86,0,12.95-2.67,17.89-6.33,5.08-3.77,8.42-8.75,11.79-14.54l11.89-24.74c23.67,4.88,49.78,13.83,85.66,12.01,40.97-2.09,66.47-35.84,62.64-52.28ZM186.44,134.48l-11,22.89c-3.12,5.36-6.21,9.97-10.91,13.45-4.57,3.39-10.21,5.86-16.55,5.86-15.14,0-27.42-10.75-27.42-24.02s12.51-22.6,27.61-23.66c7.62-.77,27.02,1.93,29.31,2.24,2.5.33,5.05.76,7.68,1.28.09.02.14.03.14.03l1.9.37-.76,1.56Z"/>
      </g>
    </g>
  </g>
</svg>